<svg xmlns="http://www.w3.org/2000/svg" viewBox="0 0 204.04 40.33"><defs><style>.cls-1{font-size:27.99px;font-family:Bauhaus93, Bauhaus 93;}.cls-2{fill:#45a843;}.cls-3{font-size:24.49px;}.cls-4{fill:#fff;}.cls-5{fill:none;stroke:#000;stroke-miterlimit:10;stroke-width:0.85px;}</style></defs><title>uberUnlock2</title><g id="Layer_2" data-name="Layer 2"><g id="Layer_1-2" data-name="Layer 1"><path d="M13.54,40.33l-8.48,0c-2.8,0-5.08-2.71-5.07-6l.09-28C.1,3,2.39.32,5.2.33l8.48,0c2.8,0,5.08,2.71,5.07,6l-.09,28C18.64,37.66,16.35,40.34,13.54,40.33Zm-8.35-38c-1.87,0-3.4,1.78-3.4,4l-.09,28c0,2.2,1.51,4,3.38,4l8.48,0c1.87,0,3.4-1.78,3.4-4l.09-28c0-2.2-1.51-4-3.38-4Z"/><rect x="8.83" y="0.29" width="2" height="16.11" transform="translate(1.46 18.15) rotate(-89.81)"/><rect x="8.76" y="24.27" width="2" height="16.11" transform="translate(-22.6 41.97) rotate(-89.81)"/><path d="M9.31,38.32a2,2,0,0,1,0-4,2,2,0,0,1,0,4Zm0-3a1,1,0,0,0,0,2,1,1,0,0,0,0-2Z"/><path d="M12.39,5.35l-5.93,0A.47.47,0,0,1,6,4.83a.47.47,0,0,1,.43-.5l5.93,0a.47.47,0,0,1,.42.5A.47.47,0,0,1,12.39,5.35Z"/><path d="M9,4.84"/><text class="cls-1" transform="translate(1.21 29.68)">UBER<tspan class="cls-2" x="62.7" y="0">UNLOCK</tspan><tspan class="cls-3" x="165.25" y="0"> </tspan></text><path d="M194.89,33.75l-28-9.44a3,3,0,0,1-1.89-3.8l5.15-15.05A3,3,0,0,1,174,3.58L202,13a3,3,0,0,1,1.89,3.8l-5.15,15.05A3,3,0,0,1,194.89,33.75Z"/><line class="cls-4" x1="176.19" y1="2.11" x2="167.85" y2="5.53"/><path class="cls-4" d="M176.19,0l-8.34,3.42c-.52.21.47,4,0,4.23l8.34-3.42c.52-.21-.47-4,0-4.23Z"/><path class="cls-4" d="M191.56,27.3l-8.44-2.84a4,4,0,0,1-2.52-5.07l1-2.79a4.05,4.05,0,0,1,5.11-2.5l8.44,2.84A4,4,0,0,1,197.63,22l-1,2.79A4.05,4.05,0,0,1,191.56,27.3Z"/><line class="cls-5" x1="181.89" y1="15.59" x2="193.14" y2="19.38"/><line class="cls-5" x1="191.42" y1="15.24" x2="190.33" y2="18.43"/><line class="cls-5" x1="192.74" y1="19.25" x2="190.83" y2="24.83"/><line class="cls-5" x1="191.92" y1="21.64" x2="197.55" y2="23.53"/><line class="cls-5" x1="186.81" y1="23.48" x2="196.46" y2="26.72"/><line class="cls-5" x1="179.58" y1="21.04" x2="185.2" y2="22.93"/><line class="cls-5" x1="186.95" y1="23.08" x2="186.13" y2="25.47"/><line class="cls-5" x1="180.67" y1="17.85" x2="186.3" y2="19.74"/><line class="cls-5" x1="186.98" y1="17.75" x2="186.16" y2="20.14"/></g></g></svg>