<svg xmlns="http://www.w3.org/2000/svg" data-name="Layer 1" viewBox="0 0 199.3 40"><defs><style>  .cls-1{fill:#45a843;}.cls-2,.cls-5{stroke:#000;}.cls-2,.cls-3,.cls-4,.cls-5{stroke-miterlimit:10;}.cls-2{stroke-width:0.69px;}.cls-3,.cls-5{fill:none;}.cls-3,.cls-4{stroke:#fff;}.cls-3{stroke-width:3.68px;}.cls-4{fill:#fff;}.cls-4,.cls-5{stroke-width:0.92px;}</style></defs><title>  Artboard 1</title><path d="M13.4 40 5 40c-2.8 0-5-2.7-5-6L0.1 6c0-3.3 2.3-6 5.1-6l8.4 0c2.8 0 5 2.7 5 6L18.5 34C18.5 37.3 16.2 40 13.4 40ZM5.2 2C3.3 2 1.8 3.8 1.8 6L1.7 34c0 2.2 1.5 4 3.4 4l8.4 0c1.9 0 3.4-1.8 3.4-4l0.1-28c0-2.2-1.5-4-3.3-4Z"/><rect x="8.8" width="2" height="16" transform="translate(1.71 17.74)rotate(-89.81)"/><rect x="8.7" y="24" width="2" height="16" transform="translate(-22.35 41.56)rotate(-89.81)"/><path d="M9.2 38a2 2 0 0 1 0-4 2 2 0 0 1 0 4Zm0-3a1 1 0 0 0 0 2 1 1 0 0 0 0-2Z"/><path d="M12.3 5 6.4 5A0.5 0 0 1 6 4.5 0 0 1 6.4 4l5.9 0a0.5 0 0 1 0.4A0.5 0 0 1 12.3 5Z"/><path d="M16 10.7v12.1a7 7 0 0 1-1.9 5.1 6.7 6.7 0 0 1-5 1.9A6 6 0 0 1 4.3 28a7.8 7.8 0 0 1-1.6-5.3V10.7H8.2V22.6q0 1.7 1.2 1.7t1.2-1.7V10.7Z"/><path d="M19.3 10.7H26q6 0 6 4.7a4.7 4.7 0 0 1-2 3.9 4.7 4.7 0 0 1 3 4.6A5.1 5.1 0 0 1 31.2 28a5 5 0 0 1-1.8 1 9.6 9.6 0 0 1-2.6h-1v-4.8h0.9a2.3 2.3 0 0 0 1.2-0.2 0 0 0 0.3-0.7q0-0.9-1.4-0.9H25.7v-5q1.5 0 1.5-1t-1.4-1h-1V29.3H19.3Z"/><path d="M44.9 18V22.1H41.4a1.8 1.8 0 0 0-1 0.2 0 0 0-0.3 0 0 0 0.3 2.8 2.8 0 0 0 1.3h3.7v5.3H41a6.6 6.6 0 0 1-4.6-1.5 5.5 5.5 0 0 1-1.6-4.2V16.3a5.5 5.5 0 0 1 1.5-4.2 5.9 5.9 0 0 1 4.3-1.5h4.8V16h-3.5q-1.4 0-1.4a0.8 0 0 0 0.3 2.4 2.4 0 0 0 1.2Z"/><path d="M53.9 15.7V29.3H48.4V10.7h7a7.1 7.1 0 0 1 5 1.6A6.1 6.1 0 0 1 60 21.7l3.2 7.7H57.4l-2.7-6v-4.8h0.4q1.7 0 1.7-1.5 0-1.3-2-1.3Z"/><path class="cls-1" d="M77.9 10.7v12.1A7 7 0 0 1 76 27.9a6.7 6.7 0 0 1-5 1.9A6 6 0 0 1 66.2 28a7.8 7.8 0 0 1-1.6-5.3V10.7h5.5V22.6q0 1.7 1.2 1.7t1.2-1.7V10.7Z"/><path class="cls-1" d="M80.9 29.3V17.2a7 7 0 0 1 1.9-5.1 6.7 6.7 0 0 1 5-1.9 6.1 6.1 0 0 1 4.8 1.9 7.8 7.8 0 0 1 1.7 5.3V29.3H88.7V17.4q0-1.7-1.2-1.7t-1.2 1.7V29.3Z"/><path class="cls-1" d="M97.1 10.7h5.5V21.8A2.6 2.6 0 0 0 103 23.5a2.3 2.3 0 0 0 1.6h0.3v5.4h-1.5a6.1 6.1 0 0 1-4.7-1.8 6.9 6.9 0 0 1-1.7-4.9Z"/><path class="cls-1" d="M115.5 10.2a9 9 0 0 1 6.7 2.9A9.6 9.6 0 0 1 125 20 9.5 9.5 0 0 1 122.2 27a9.6 9.6 0 0 1-13.7 0A9.5 9.5 0 0 1 105.7 20a9.7 9.7 0 0 1 9.8-9.8Zm-0.2 5.5A3.8 3.8 0 0 0 112.5 17a4.5 4.5 0 0 0 0 6.1 3.9 3.9 0 0 0 5.8 0 4.5 4.5 0 0 0 0-6.1A3.8 3.8 0 0 0 115.4 15.7Z"/><path class="cls-1" d="M140.1 20.2l5.7a11.4 11.4 0 0 1-3.1 7 9 9 0 0 1-6.6 2.5A9.3 9.3 0 0 1 129.3 27a9.5 9.5 0 0 1-2.8-6.9 9.6 9.6 0 0 1 2.8-7 9.4 9.4 0 0 1 7-2.8 9.1 9.1 0 0 1 6.8 2.8 11 11 0 0 1 2.7 5.4l-5.9q-1-3.1-3.7-3.1a3.8 3.8 0 0 0-2.9 1.2 4.4 4.4 0 0 0-1.1 3.1 4.3 4.3 0 0 0 1.1 3 4.1 4.1 0 0 0 5.6A4.8 4.8 0 0 0 140.1 20.2Z"/><path class="cls-1" d="M153.9 10.7V29.3h-5.5V10.7Zm10.5 0-4.9 8.5 4.8 10.2H158.2L154 19l4.7-8.3Z"/><rect class="cls-2" x="165.2" y="8.3" width="31.3" height="21.2" rx="2" ry="2" transform="translate(33.73 -87.99)rotate(30.03)"/><line class="cls-3" x1="168.6" y1="4.3" x2="178.3" y2="3.1"/><rect class="cls-4" x="176" y="16.1" width="15.6" height="10.1" rx="2" ry="2" transform="translate(35.25 -89.17)rotate(30.03)"/><line class="cls-5" x1="184.8" y1="18.5" x2="186.6" y2="15.3"/><line class="cls-5" x1="178.3" y1="14.2" x2="189.4" y2="20.6"/><line class="cls-5" x1="188.8" y1="20.8" x2="186" y2="25.6"/><line class="cls-5" x1="189.8" y1="28.3" x2="181.8" y2="23.7"/><line class="cls-5" x1="173.5" y1="18.8" x2="179.8" y2="22.5"/><line class="cls-5" x1="182" y1="23.3" x2="178.8" y2="28.9"/><line class="cls-5" x1="175.6" y1="16.9" x2="181.2" y2="20.1"/><line class="cls-5" x1="182.4" y1="17.1" x2="180.8" y2="19.9"/><line class="cls-5" x1="187.2" y1="23.6" x2="191.2" y2="25.9"/></svg>