<?xml version="1.0" encoding="utf-8" ?>
<!-- Generator: Adobe Illustrator 21.0.2, SVG Export Plug-In . SVG Version: 6.00 Build 0)  -->
<svg version="1.1" id="Layer_1" xmlns="http://www.w3.org/2000/svg" xmlns:xlink="http://www.w3.org/1999/xlink" x="0px" y="0px"
	 viewBox="0 0 199.3 40" style="enable-background:new 0 0 199.3 40;" xml:space="preserve">
<style type="text/css">
	.st0{fill:#45A843;}
	.st1{stroke:#000000;stroke-width:0.69;stroke-miterlimit:10;}
	.st2{fill:none;stroke:#FFFFFF;stroke-width:3.68;stroke-miterlimit:10;}
	.st3{fill:#FFFFFF;stroke:#FFFFFF;stroke-width:0.92;stroke-miterlimit:10;}
	.st4{fill:none;stroke:#000000;stroke-width:0.92;stroke-miterlimit:10;}
</style>
<g>
<path d="M13.4,40L5,40c-2.8,0-5-2.7-5-6L0.1,6c0-3.3,2.3-6,5.1-6l8.4,0c2.8,0,5,2.7,5,6l-0.1,28C18.5,37.3,16.2,40,13.4,40z M5.1,2
		C3.3,2,1.8,3.8,1.8,6L1.7,34c0,2.2,1.5,4,3.4,4l8.4,0c1.9,0,3.4-1.8,3.4-4l0.1-28c0-2.2-1.5-4-3.4-4L5.1,2z" />
<rect x="8.8" y="0" transform="matrix(3.326438e-03 -1 1 3.326438e-03 1.7118 17.7371)" width="2" height="16" />
<rect x="8.7" y="24" transform="matrix(3.326438e-03 -1 1 3.326438e-03 -22.3488 41.5627)" width="2" height="16" />
<path d="M9.2,38c-0.9,0-1.7-0.9-1.7-2c0-1.1,0.8-2,1.7-2c0.9,0,1.7,0.9,1.7,2C10.9,37.1,10.2,38,9.2,38z M9.2,35
		c-0.5,0-0.8,0.4-0.8,1s0.4,1,0.8,1c0.5,0,0.8-0.4,0.8-1C10.1,35.4,9.7,35,9.2,35z" />
<path d="M12.3,5L6.4,5C6.2,5,6,4.8,6,4.5C6,4.2,6.2,4,6.4,4l5.9,0c0.2,0,0.4,0.2,0.4,0.5S12.5,5,12.3,5z" />
<path d="M8.9,4.5" />
</g>
<g>
<path d="M16,10.7v12.1c0,2.1-0.6,3.8-1.9,5.1c-1.3,1.3-2.9,1.9-5,1.9c-2.1,0-3.7-0.6-4.8-1.9c-1.1-1.2-1.7-3-1.7-5.3V10.7h5.5v11.9
		c0,1.1,0.4,1.7,1.2,1.7c0.8,0,1.2-0.6,1.2-1.7V10.7H16z" />
<path d="M19.3,10.7H26c4,0,6,1.6,6,4.7c0,1.6-0.7,2.9-2,3.9c2,0.9,3,2.4,3,4.6c0,1.7-0.6,3.1-1.7,4.1c-0.6,0.5-1.2,0.8-1.8,1
		s-1.5,0.3-2.6,0.3h-1v-4.8h0.9c0.5,0,0.9-0.1,1.2-0.2c0.2-0.1,0.3-0.4,0.3-0.7c0-0.6-0.5-0.9-1.4-0.9h-1.1v-5c1,0,1.5-0.4,1.5-1.1
		c0-0.6-0.5-1-1.4-1h-1v13.7h-5.5V10.7z" />
<path d="M44.9,17.9v4.2h-3.6c-0.5,0-0.8,0.1-1,0.2c-0.2,0.1-0.3,0.4-0.3,0.7c0,0.4,0.1,0.6,0.3,0.8C40.5,24,41,24,41.6,24h3.7v5.3
		H41c-2,0-3.6-0.5-4.6-1.5c-1.1-1-1.6-2.4-1.6-4.2v-7.3c0-1.8,0.5-3.2,1.5-4.2c1-1,2.4-1.5,4.3-1.5h4.8V16h-3.5
		c-0.9,0-1.4,0.3-1.4,0.9c0,0.4,0.1,0.6,0.3,0.8c0.2,0.1,0.6,0.2,1.2,0.2H44.9z" />
<path d="M53.9,15.7v13.6h-5.5V10.7h7c2.1,0,3.8,0.5,5,1.6c1.3,1.2,2,2.7,2,4.6c0,1.9-0.8,3.5-2.4,4.8l3.2,7.7h-5.7l-2.7-6v-4.8h0.4
		c1.2,0,1.7-0.5,1.7-1.5c0-0.9-0.7-1.3-2-1.3H53.9z" />
<path class="st0" d="M77.9,10.7v12.1c0,2.1-0.6,3.8-1.9,5.1c-1.3,1.3-2.9,1.9-5,1.9c-2.1,0-3.7-0.6-4.8-1.9c-1.1-1.2-1.7-3-1.7-5.3
		V10.7h5.5v11.9c0,1.1,0.4,1.7,1.2,1.7c0.8,0,1.2-0.6,1.2-1.7V10.7H77.9z" />
<path class="st0" d="M80.9,29.3V17.2c0-2.1,0.6-3.8,1.9-5.1c1.3-1.3,2.9-1.9,5-1.9c2.1,0,3.7,0.6,4.8,1.9c1.1,1.2,1.7,3,1.7,5.3
		v11.9h-5.5V17.4c0-1.1-0.4-1.7-1.2-1.7c-0.8,0-1.2,0.6-1.2,1.7v11.9H80.9z" />
<path class="st0" d="M97.1,10.7h5.5v11.1c0,0.9,0.1,1.4,0.4,1.7c0.3,0.3,0.8,0.4,1.6,0.4h0.3v5.4h-1.5c-2,0-3.6-0.6-4.7-1.8
		c-1.1-1.2-1.7-2.8-1.7-4.9V10.7z" />
<path class="st0" d="M115.5,10.2c2.6,0,4.8,1,6.7,2.9c1.9,1.9,2.8,4.2,2.8,6.9c0,2.7-0.9,5-2.8,6.9c-1.9,1.9-4.2,2.9-6.9,2.9
		c-2.7,0-5-1-6.8-2.9c-1.9-1.9-2.8-4.2-2.8-6.9c0-2.7,1-5,2.9-6.9C110.4,11.2,112.8,10.2,115.5,10.2z M115.3,15.7
		c-1.1,0-2.1,0.4-2.9,1.3s-1.2,1.8-1.2,3c0,1.2,0.4,2.2,1.2,3c0.8,0.8,1.8,1.3,2.9,1.3c1.1,0,2.1-0.4,2.9-1.3c0.8-0.8,1.2-1.8,1.2-3
		s-0.4-2.2-1.2-3C117.4,16.1,116.5,15.7,115.3,15.7z" />
<path class="st0" d="M140.1,20.2l5.7,0.2c-0.4,3-1.4,5.3-3.1,7c-1.7,1.6-3.9,2.5-6.6,2.5c-2.7,0-5-0.9-6.9-2.8
		c-1.8-1.9-2.8-4.2-2.8-6.9c0-2.8,0.9-5.1,2.8-7c1.9-1.9,4.2-2.8,7-2.8c2.7,0,5,0.9,6.8,2.8c1.3,1.3,2.2,3.1,2.7,5.4l-5.9,0.4
		c-0.7-2-1.9-3.1-3.7-3.1c-1.2,0-2.1,0.4-2.9,1.2c-0.8,0.8-1.1,1.9-1.1,3.1c0,1.2,0.4,2.2,1.1,3c0.7,0.8,1.7,1.2,2.8,1.2
		c1.2,0,2.1-0.4,2.8-1.1C139.5,22.5,139.9,21.5,140.1,20.2z" />
<path class="st0" d="M153.9,10.7v18.7h-5.5V10.7H153.9z M164.4,10.7l-4.9,8.5l4.8,10.2h-6.2L154,19l4.7-8.4H164.4z" />
</g>
<g>
<path class="st1" d="M187.4,34.9l-23.6-13.7c-1-0.6-1.3-1.8-0.7-2.7l8.6-14.9c0.6-1,1.8-1.3,2.7-0.7L198,16.5
		c1,0.6,1.3,1.8,0.7,2.7l-8.6,14.9C189.6,35.1,188.3,35.4,187.4,34.9z" />
<line class="st2" x1="168.6" y1="4.3" x2="178.3" y2="3.1" />
<path class="st3" d="M191.4,19.6l-10.1-5.8c-1-0.6-2.2-0.2-2.7,0.7l-3.1,5.3c-0.6,1-0.2,2.2,0.7,2.7l10.1,5.8
		c1,0.6,2.2,0.2,2.7-0.7l3.1-5.3C192.7,21.4,192.3,20.2,191.4,19.6z" />
<line class="st4" x1="184.8" y1="18.5" x2="186.6" y2="15.3" />
<line class="st4" x1="178.3" y1="14.2" x2="189.4" y2="20.6" />
<line class="st4" x1="188.8" y1="20.8" x2="186" y2="25.6" />
<line class="st4" x1="189.8" y1="28.3" x2="181.8" y2="23.7" />
<line class="st4" x1="173.4" y1="18.8" x2="179.8" y2="22.5" />
<line class="st4" x1="182" y1="23.3" x2="178.8" y2="28.8" />
<line class="st4" x1="175.6" y1="16.9" x2="181.2" y2="20.1" />
<line class="st4" x1="182.4" y1="17.1" x2="180.8" y2="19.9" />
<line class="st4" x1="187.2" y1="23.6" x2="191.2" y2="25.9" />
</g>
<g>
</g>
<g>
</g>
<g>
</g>
<g>
</g>
<g>
</g>
<g>
</g>
<g>
</g>
<g>
</g>
<g>
</g>
<g>
</g>
<g>
</g>
<g>
</g>
<g>
</g>
<g>
</g>
<g>
</g>
</svg>
