<?xml version="1.0" standalone="no"?>
<!DOCTYPE svg PUBLIC "-//W3C//DTD SVG 20010904//EN"
 "http://www.w3.org/TR/2001/REC-SVG-20010904/DTD/svg10.dtd">
<svg version="1.0" xmlns="http://www.w3.org/2000/svg"
 width="205.000000pt" height="40.000000pt" viewBox="0 0 205.000000 40.000000"
 preserveAspectRatio="xMidYMid meet">
<metadata>
Created by potrace 1.14, written by Peter Selinger 2001-2017
</metadata>
<g transform="translate(0.000000,40.000000) scale(0.100000,-0.100000)"
fill="#000000" stroke="none">
<path d="M17 382 c-14 -16 -17 -44 -17 -185 0 -198 0 -197 95 -197 55 0 66 3
79 22 9 12 16 37 16 55 0 30 3 33 30 33 l30 0 0 70 c0 39 4 70 10 70 5 0 7
-13 3 -31 -4 -21 -1 -34 8 -41 11 -7 11 -11 2 -15 -21 -8 -16 -53 5 -53 42 0
68 64 37 90 -11 9 -13 16 -5 24 17 17 11 55 -9 66 -11 5 -40 10 -65 10 -44 0
-46 1 -46 28 0 15 -7 38 -16 50 -13 19 -24 22 -78 22 -48 0 -67 -4 -79 -18z
m153 -182 l0 -110 -75 0 -75 0 0 110 0 110 75 0 75 0 0 -110z"/>
<path d="M30 222 c0 -88 14 -112 63 -112 49 0 67 31 67 115 l0 75 -30 0 -30 0
0 -70 c0 -40 -4 -70 -10 -70 -6 0 -10 30 -10 70 0 68 -1 70 -25 70 -25 0 -25
-1 -25 -78z"/>
<path d="M1723 344 c-27 -11 -35 -24 -54 -82 -12 -38 -20 -76 -16 -85 8 -22
306 -120 323 -106 8 6 26 49 41 95 24 73 25 86 13 98 -13 12 -256 98 -270 95
-3 0 -19 -7 -37 -15z"/>
<path d="M366 284 c-11 -11 -16 -35 -16 -79 0 -55 3 -66 22 -79 12 -9 37 -16
55 -16 29 0 33 3 33 25 0 21 -5 25 -30 25 -16 0 -30 5 -30 10 0 6 11 10 25 10
18 0 25 5 25 20 0 13 -7 20 -20 20 -11 0 -20 7 -20 15 0 9 9 15 25 15 20 0 25
5 25 25 0 22 -4 25 -39 25 -23 0 -46 -7 -55 -16z"/>
<path d="M490 205 c0 -95 0 -95 25 -95 24 0 25 2 25 70 0 56 3 70 15 70 8 0
15 -7 15 -15 0 -8 -4 -15 -10 -15 -14 0 -12 -35 4 -75 13 -29 20 -35 45 -35
l31 0 -17 36 c-14 28 -15 39 -5 54 33 54 -3 100 -78 100 l-50 0 0 -95z"/>
</g>
</svg>
