<svg id="Layer_1" data-name="Layer 1" xmlns="http://www.w3.org/2000/svg" xmlns:xlink="http://www.w3.org/1999/xlink" viewBox="0 0 204.04 40"><defs><style>.cls-1{font-size:27.99px;font-family:Bauhaus93, Bauhaus 93;}.cls-2{fill:#45a843;}.cls-3{font-size:24.49px;}</style></defs><title>webOptimized</title><path d="M13.43,40,5,40c-2.78,0-5-2.71-5-6L.09,6c0-3.31,2.28-6,5.06-6l8.41,0c2.78,0,5,2.71,5,6L18.5,34C18.49,37.33,16.22,40,13.43,40ZM5.15,2C3.29,2,1.78,3.78,1.77,6L1.68,34c0,2.2,1.5,4,3.35,4l8.41,0c1.85,0,3.37-1.78,3.38-4l.09-28c0-2.2-1.5-4-3.35-4Z"/><rect x="8.75" y="0.02" width="2" height="15.98" transform="translate(1.71 17.74) rotate(-89.81)"/><rect x="8.68" y="24" width="2" height="15.98" transform="translate(-22.35 41.56) rotate(-89.81)"/><path d="M9.24,38a2,2,0,0,1,0-4,2,2,0,0,1,0,4Zm0-3a1,1,0,0,0,0,2,1,1,0,0,0,0-2Z"/><path d="M12.29,5,6.4,5A.46.46,0,0,1,6,4.5.46.46,0,0,1,6.4,4l5.89,0a.46.46,0,0,1,.42.5A.46.46,0,0,1,12.29,5Z"/><text class="cls-1" transform="translate(1.2 29.34) scale(0.99 1)">UBER<tspan class="cls-2" x="62.7" y="0">UNLOCK</tspan><tspan class="cls-3" x="165.25" y="0"> </tspan></text><image width="512" height="512" transform="translate(156.04 3.38) rotate(-15.16) scale(0.09)" xlink:href="SIM-512.png"/></svg>